# xmcd
# 
# Track frame offsets:
#     150
#     14573
#     32052
#     49138
#     70189
# 
# Disc length: 1183
# 
# Revision: 0
# Processed by: cddbd v1.5.2PL0 Copyright (c) Steve Scherf et al.
# Submitted via: fre:ac v1.0.17
# 
DISCID=3e049d05
DTITLE=カノエラナ - カノエラナです。
DYEAR=2015
DGENRE=JPop
TTITLE0=カノエラナです。
TTITLE1=真夏に片想い？
TTITLE2=へるぷみー！
TTITLE3=僕はロボット
TTITLE4=START
EXTD=
EXTT0=
EXTT1=
EXTT2=
EXTT3=
EXTT4=
PLAYORDER=
